<mxfile host="app.diagrams.net" modified="2024-01-31T02:32:20.126Z" agent="Mozilla/5.0 (Windows NT 10.0; Win64; x64) AppleWebKit/537.36 (KHTML, like Gecko) Chrome/121.0.0.0 Safari/537.36" version="22.1.20" etag="j7biieA5XanGAsZLw5ka" type="github">
  <diagram name="Page-1" id="ptsg5zmSMc6TlrADYzVT">
    <mxGraphModel>
      <root>
        <mxCell id="0" />
        <mxCell id="1" parent="0" />
      </root>
    </mxGraphModel>
  </diagram>
</mxfile>
